<svg width="630" height="574" viewBox="0 0 630 574" fill="none" xmlns="http://www.w3.org/2000/svg">
<path d="M461.641 257.195C452.708 232.684 479.634 231.836 498.113 237.716L629.992 288.472C629.992 227.116 521.094 87.9813 373.449 58.6777L314.489 7.39098e-06L256.058 58.6777C108.43 87.9813 0.0618293 227.133 0.0618293 288.472L131.878 237.716C150.358 231.836 177.363 232.684 168.43 257.195L130.421 404.999L195.266 280.278C223.918 246.023 277.461 258.678 280.35 298.255L314.489 574L347.88 298.255C347.88 255.859 405.343 245.036 434.805 280.278L498.293 404.999L461.641 257.195Z" fill="#202020"/>
</svg>
